<svg width="488" height="244" viewBox="0 0 488 244" fill="none" xmlns="http://www.w3.org/2000/svg">
<g clip-path="url(#clip0_4_2)">
<path d="M485.83 53.6599C487.83 33.8499 390.45 1.41992 243.67 1.41992C96.89 1.41992 1.41998 35.1999 1.41998 55.0999C1.41998 55.4799 1.41998 55.0999 1.49998 55.4799L27.6 242.48L465.93 241.3L484.52 66.1099C484.52 66.8699 484.32 68.8099 485.83 53.6599Z" stroke="#263C92" stroke-width="2.83" stroke-miterlimit="10"/>
<path d="M471.87 62.8099C471.87 45.7099 369.7 18.4399 243.67 18.4399C117.64 18.4399 15.46 45.7299 15.46 62.8099C15.461 63.1474 15.5046 63.4834 15.59 63.8099L36.1 225.48H451.23L471.75 63.8099C471.826 63.482 471.867 63.1467 471.87 62.8099Z" fill="#263C92"/>
<path d="M228.17 214V166.1H245.74C251.8 166.1 256.517 166.62 259.89 167.66C263.263 168.7 265.633 170.337 267 172.57C268.476 175.214 269.189 178.215 269.06 181.24V198.62C269.187 201.683 268.475 204.723 267 207.41C265.627 209.67 263.27 211.337 259.93 212.41C256.59 213.483 251.923 214.017 245.93 214.01L228.17 214ZM243.52 206.67H245.92C247.637 206.768 249.356 206.527 250.98 205.96C251.442 205.774 251.856 205.486 252.19 205.117C252.524 204.748 252.77 204.308 252.91 203.83C253.195 202.669 253.326 201.475 253.3 200.28V179.4C253.338 178.238 253.176 177.077 252.82 175.97C252.648 175.527 252.379 175.127 252.033 174.8C251.687 174.473 251.273 174.227 250.82 174.08C249.198 173.607 247.508 173.408 245.82 173.49H243.52V206.67Z" fill="white"/>
<path d="M275.83 214V166.1H307.02V173.31H291.17V185.2H303.25V192.53H291.17V206.81H307.17V213.97L275.83 214Z" fill="white"/>
<path d="M311.57 214V166.1H330.68C334.762 166.044 338.839 166.399 342.85 167.16C345.825 167.65 348.599 168.974 350.85 170.98C352.77 172.813 353.73 175.403 353.73 178.75C353.756 180.531 353.523 182.306 353.04 184.02C352.579 185.56 351.704 186.944 350.51 188.02C348.968 189.314 347.173 190.271 345.24 190.83L354.75 214.01H338.91L331.28 192.54H326.91V214.01L311.57 214ZM326.91 186.44H331.19C332.913 186.515 334.634 186.243 336.25 185.64C337.344 185.204 338.242 184.387 338.78 183.34C339.291 182.196 339.541 180.953 339.51 179.7C339.614 177.952 339.028 176.232 337.88 174.91C336.79 173.77 334.79 173.19 331.88 173.19H326.88L326.91 186.44Z" fill="white"/>
<path d="M360.08 214V166.1H391.28V173.31H375.42V185.2H387.52V192.53H375.42V206.81H391.42V213.97L360.08 214Z" fill="white"/>
<path d="M395.82 214V166.1H411.16V185.67L422.82 166.1H437.82L424.96 187.74L438.42 214H422.82L412.82 192.83L411.19 194.72V214H395.82Z" fill="white"/>
<path d="M67.88 53.81C69.003 52.786 70.0585 51.6904 71.04 50.53C72.3436 49.1872 74.071 48.3358 75.93 48.12C76.43 48.04 78.47 47.83 82.03 47.52C82.9604 47.9564 83.6797 48.744 84.03 49.71C87.0833 55.99 90.0833 62.2767 93.03 68.57C93.3147 69.1524 93.5586 69.7538 93.76 70.37C93.8333 70.7008 93.7859 71.047 93.6264 71.3459C93.4668 71.6448 93.2056 71.8768 92.89 72C91.0207 72.6334 89.0902 73.0692 87.13 73.3C83.56 73.9 81.22 74.05 80.13 73.72C79.04 73.39 76.63 71.65 72.99 68.48C65.32 61.81 58.87 58.96 53.9 59.93C50.35 60.63 48.9 62.36 49.43 65.07C50.12 68.46 56.89 73.96 69.26 81.89C83.43 91.07 92.45 98.09 96.86 102.61C101.205 107.066 104.029 112.782 104.93 118.94C106.13 126.45 104.04 132.69 98.81 137.72C93.628 142.737 87.0879 146.124 80 147.46C75.423 148.382 70.7224 148.517 66.1 147.86C64.7276 147.598 63.3204 147.575 61.94 147.79C61.5335 147.872 61.1551 148.058 60.8415 148.33C60.5279 148.602 60.2897 148.949 60.15 149.34C59.44 151.05 57.15 152.34 53.15 153.26C52.1096 153.585 51.0125 153.687 49.93 153.56C49.32 153.4 48.74 152.73 48.2 151.56C45.1133 145.487 41.9833 139.427 38.81 133.38C37.57 131.06 36.93 129.83 36.89 129.67C36.63 128.55 38.24 127.56 41.74 126.74C46.5 125.63 49.39 125.37 50.42 125.91C52.1937 127.102 53.7983 128.528 55.19 130.15C63.02 138.3 69.68 141.8 75.46 140.63C77.3186 140.345 79.0439 139.493 80.4 138.19C80.9346 137.71 81.3389 137.103 81.5749 136.424C81.811 135.745 81.8713 135.018 81.75 134.31C81.28 131.86 79.25 129.24 75.6 126.47C71.3071 123.248 66.8548 120.244 62.26 117.47C49.67 109.81 40.29 103.71 34.46 98.88C28.63 94.05 24.93 88.6 23.46 82.49C22.5827 79.3081 22.5185 75.9569 23.2733 72.7438C24.0281 69.5306 25.5777 66.5585 27.78 64.1C32.35 58.76 38.78 55.22 46.78 53.59C52.39 52.46 59.44 52.51 67.88 53.81Z" fill="white"/>
<path d="M157.17 114.17C148.857 115.017 140.557 115.987 132.27 117.08L131.82 122.6C131.811 122.794 131.763 122.984 131.68 123.16C131.295 124.159 131.145 125.233 131.24 126.3C131.43 127.71 133.12 128.68 136.31 129.3C137.475 129.379 138.593 129.792 139.53 130.49C140.09 131.248 140.407 132.158 140.44 133.1C140.64 134.7 140.61 135.68 140.36 136.04C140.11 136.4 139.43 136.67 138.36 136.81C129.807 137.917 121.267 139.157 112.74 140.53C111.32 140.757 110.47 139.977 110.19 138.19C109.85 136.05 110.72 134.133 112.8 132.44C114.8 130.9 115.853 129.423 115.96 128.01C118.627 104.177 121.787 80.4 125.44 56.68C125.65 55.7591 125.711 54.8103 125.62 53.87C125.467 52.6633 123.8 51.7833 120.62 51.23C119.929 51.1308 119.295 50.7939 118.826 50.2774C118.357 49.7608 118.082 49.097 118.05 48.4C117.763 46.26 117.803 44.9267 118.17 44.4C118.53 43.84 119.65 43.4 121.52 43.21C135.28 41.5167 149.06 40.1267 162.86 39.04C165.387 38.84 167.21 39.3467 168.33 40.56C169.44 41.77 170.68 44.49 172.02 48.74C172.58 50.38 173.137 52 173.69 53.6C181.19 74.56 188.297 95.56 195.01 116.6C195.5 118.113 196.313 119.502 197.392 120.671C198.471 121.84 199.791 122.761 201.26 123.37C201.877 123.605 202.462 123.917 203 124.3C203.27 124.53 203.44 125.3 203.51 126.57C203.61 128.57 203.44 129.78 203 130.25C202.16 130.857 201.135 131.154 200.1 131.09C185.587 131.943 171.097 133.157 156.63 134.73C155.33 134.87 154.63 134.21 154.45 132.73C154.208 131.551 154.246 130.332 154.56 129.17C155.286 128.323 156.2 127.658 157.23 127.23C159.43 126.13 160.467 124.917 160.34 123.59C160.14 122.09 159.12 119 157.17 114.17ZM139.17 63.12C136.923 78.7667 134.873 94.4333 133.02 110.12C140.467 109.16 147.927 108.297 155.4 107.53C150.2 92.7233 144.807 77.92 139.22 63.12H139.17Z" fill="white"/>
<path d="M251.34 122.89H256.98C259.88 122.89 262.03 122.27 263.45 120.94C264.87 119.61 266.73 116.52 269.12 111.68C269.967 109.813 270.967 108.69 272.12 108.31C274.037 107.868 276.01 107.723 277.97 107.88C279.929 107.848 281.885 108.063 283.79 108.52C284.154 108.606 284.476 108.815 284.703 109.112C284.929 109.41 285.045 109.777 285.03 110.15C284.93 111.031 284.725 111.897 284.42 112.73C283.087 117.27 281.753 121.817 280.42 126.37C280.178 127.44 279.609 128.409 278.79 129.14C278.15 129.58 276.89 129.77 274.99 129.72C253.463 129.153 231.933 129.373 210.4 130.38C207.66 130.51 206.24 129.58 206.14 127.56C205.987 126.542 206.126 125.502 206.54 124.56C207.159 123.948 207.958 123.552 208.82 123.43C212.54 122.55 214.35 120.43 214.22 117.07C213.36 94.0433 212.493 71.0099 211.62 47.9699C211.567 46.5299 210.233 45.5299 207.62 44.9699C205.38 44.5399 203.98 44.0299 203.45 43.4299C202.828 42.5343 202.515 41.4597 202.56 40.3699C202.48 38.6699 202.64 37.5999 203.06 37.1799C203.48 36.7599 204.62 36.4999 206.5 36.4399C223.167 35.8733 239.86 35.7333 256.58 36.0199C257.913 35.9215 259.247 36.1987 260.43 36.8199C261.11 37.3199 261.43 38.6199 261.43 40.7399C261.533 41.6561 261.271 42.5761 260.7 43.2999C260.22 43.7399 259.01 44.1099 257.07 44.4199C253.48 45.0199 251.68 46.2799 251.67 48.1699L251.34 122.89Z" fill="white"/>
<path d="M341.42 43.7198C342.775 43.082 344.088 42.3572 345.35 41.5498C346.981 40.6664 348.859 40.3498 350.69 40.6498C351.2 40.7098 353.2 41.0798 356.69 41.7698C357.073 42.0894 357.389 42.4821 357.619 42.9251C357.85 43.368 357.989 43.8524 358.03 44.3498C359.243 51.0165 360.41 57.6598 361.53 64.2798C361.651 64.8928 361.718 65.5152 361.73 66.1398C361.709 66.4607 361.577 66.7643 361.356 66.998C361.135 67.2317 360.839 67.3809 360.52 67.4198C358.553 67.4944 356.583 67.3705 354.64 67.0498C351.06 66.6198 348.77 66.1198 347.77 65.5098C346.77 64.8998 344.98 62.6298 342.37 58.7098C336.83 50.4198 331.43 46.0398 326.37 45.5898C322.78 45.2698 320.88 46.4598 320.68 49.1298C320.42 52.4498 325.37 59.3898 335.04 70.1298C346.09 82.4898 352.82 91.4598 355.81 96.8498C358.747 102.113 359.891 108.189 359.07 114.16C358.766 117.512 357.591 120.726 355.662 123.484C353.732 126.241 351.115 128.446 348.07 129.88C341.673 133.108 334.491 134.453 327.36 133.76C322.725 133.369 318.187 132.214 313.93 130.34C312.672 129.723 311.32 129.321 309.93 129.15C309.518 129.122 309.105 129.199 308.731 129.374C308.357 129.549 308.033 129.816 307.79 130.15C306.64 131.53 304.05 132.1 300 131.87C298.916 131.893 297.84 131.689 296.84 131.27C296.501 130.982 296.228 130.625 296.038 130.224C295.849 129.822 295.747 129.384 295.74 128.94C294.447 122.48 293.113 116.02 291.74 109.56C291.187 107.066 290.917 105.733 290.93 105.56C290.98 104.45 292.79 103.97 296.36 104.16C301.21 104.42 304.05 104.97 304.88 105.75C306.251 107.326 307.396 109.087 308.28 110.98C313.53 120.65 318.95 125.7 324.81 126.2C326.66 126.439 328.54 126.122 330.21 125.29C330.848 124.997 331.4 124.545 331.813 123.978C332.226 123.411 332.487 122.747 332.57 122.05C332.8 119.66 331.57 116.68 328.83 113.12C325.596 108.963 322.155 104.971 318.52 101.16C308.59 90.6398 301.31 82.4298 297.08 76.3698C292.85 70.3098 290.79 64.2598 291.08 58.1998C291.132 54.9967 292 51.8597 293.603 49.086C295.206 46.3123 297.49 43.9937 300.24 42.3498C306.08 38.6398 313.13 37.0898 321.31 37.7798C326.96 38.2598 333.69 40.2198 341.42 43.7198Z" fill="white"/>
<path d="M410.63 124.1C402.39 122.593 394.13 121.203 385.85 119.93L383.9 124.93C383.843 125.111 383.744 125.275 383.61 125.41C382.97 126.227 382.532 127.183 382.33 128.2C382.12 129.55 383.48 130.92 386.39 132.33C387.486 132.722 388.45 133.415 389.17 134.33C389.5 135.181 389.559 136.114 389.34 137C389.093 138.527 388.793 139.427 388.44 139.7C388.1 139.98 387.38 140.02 386.28 139.85C377.74 138.517 369.187 137.32 360.62 136.26C359.19 136.08 358.62 135.13 358.81 133.4C359.07 131.32 360.43 129.78 362.9 128.8C365.37 127.82 366.64 126.8 367.15 125.56C376.263 104.227 385.827 83.0934 395.84 62.1601C396.294 61.3678 396.615 60.5063 396.79 59.6101C396.97 58.4501 395.597 57.1734 392.67 55.7801C392.046 55.5101 391.535 55.0307 391.227 54.4246C390.918 53.8185 390.831 53.1237 390.98 52.4601C391.29 50.4001 391.7 49.1601 392.2 48.7401C392.7 48.3201 393.89 48.2601 395.75 48.5601C409.437 50.7934 423.083 53.3167 436.69 56.1301C439.18 56.6401 440.8 57.6201 441.54 59.0501C442.28 60.4801 442.73 63.3401 442.86 67.6401C442.95 69.3101 443.04 70.9701 443.14 72.6401C444.633 94.0867 445.76 115.443 446.52 136.71C446.588 138.269 446.998 139.795 447.722 141.178C448.446 142.56 449.467 143.766 450.71 144.71C451.24 145.096 451.717 145.55 452.13 146.06C452.33 146.35 452.29 147.06 452 148.31C451.56 150.16 451.06 151.25 450.51 151.56C449.538 151.894 448.482 151.894 447.51 151.56C433.237 148.3 418.903 145.4 404.51 142.86C403.22 142.63 402.7 141.81 402.96 140.4C403.28 138.62 403.64 137.53 404.05 137.14C404.986 136.549 406.048 136.185 407.15 136.08C409.57 135.667 410.903 134.833 411.15 133.58C411.32 132.25 411.19 129.1 410.63 124.1ZM407.34 71.9201C400.893 85.7801 394.62 99.7167 388.52 113.73C395.947 114.903 403.367 116.163 410.78 117.51C409.82 102.377 408.673 87.1801 407.34 71.9201Z" fill="white"/>
</g>
<defs>
<clipPath id="clip0_4_2">
<rect width="487.28" height="243.88" fill="white"/>
</clipPath>
</defs>
</svg>
